<mxfile host="Electron" agent="Mozilla/5.0 (Windows NT 10.0; Win64; x64) AppleWebKit/537.36 (KHTML, like Gecko) draw.io/28.1.2 Chrome/138.0.7204.243 Electron/37.4.0 Safari/537.36" version="28.1.2">
  <diagram name="Page-1" id="W_vAoZ-sBwf1s5EAGY-l">
    <mxGraphModel dx="2066" dy="1201" grid="1" gridSize="10" guides="1" tooltips="1" connect="1" arrows="1" fold="1" page="1" pageScale="1" pageWidth="850" pageHeight="1100" math="0" shadow="0">
      <root>
        <mxCell id="0" />
        <mxCell id="1" parent="0" />
        <mxCell id="UdBLXG176erIkyRG75ej-1" value="TotalCount" style="rounded=0;whiteSpace=wrap;html=1;" parent="1" vertex="1">
          <mxGeometry x="520" y="440" width="120" height="40" as="geometry" />
        </mxCell>
        <mxCell id="UdBLXG176erIkyRG75ej-2" value="+ GetCount() : int&lt;div&gt;+ SetCount(int count)&lt;/div&gt;" style="rounded=0;whiteSpace=wrap;html=1;align=left;" parent="1" vertex="1">
          <mxGeometry x="520" y="480" width="120" height="60" as="geometry" />
        </mxCell>
        <mxCell id="UdBLXG176erIkyRG75ej-3" value="- _count : int" style="rounded=0;whiteSpace=wrap;html=1;" parent="1" vertex="1">
          <mxGeometry x="520" y="540" width="120" height="30" as="geometry" />
        </mxCell>
        <mxCell id="UdBLXG176erIkyRG75ej-4" value="&amp;lt;&amp;lt;thread&amp;gt;&amp;gt;&lt;div&gt;Counter&lt;/div&gt;" style="rounded=0;whiteSpace=wrap;html=1;" parent="1" vertex="1">
          <mxGeometry x="210" y="440" width="150" height="40" as="geometry" />
        </mxCell>
        <mxCell id="UdBLXG176erIkyRG75ej-5" value="+ StartCounting()" style="rounded=0;whiteSpace=wrap;html=1;align=left;" parent="1" vertex="1">
          <mxGeometry x="210" y="480" width="150" height="60" as="geometry" />
        </mxCell>
        <mxCell id="UdBLXG176erIkyRG75ej-6" value="- _numberOfTimesToLoop" style="rounded=0;whiteSpace=wrap;html=1;" parent="1" vertex="1">
          <mxGeometry x="210" y="540" width="150" height="30" as="geometry" />
        </mxCell>
        <mxCell id="UdBLXG176erIkyRG75ej-7" value="" style="endArrow=classic;html=1;rounded=0;exitX=1;exitY=0.5;exitDx=0;exitDy=0;entryX=0;entryY=0.5;entryDx=0;entryDy=0;" parent="1" source="UdBLXG176erIkyRG75ej-5" target="UdBLXG176erIkyRG75ej-2" edge="1">
          <mxGeometry width="50" height="50" relative="1" as="geometry">
            <mxPoint x="350" y="490" as="sourcePoint" />
            <mxPoint x="400" y="440" as="targetPoint" />
          </mxGeometry>
        </mxCell>
        <mxCell id="UdBLXG176erIkyRG75ej-8" value="2" style="text;html=1;align=center;verticalAlign=middle;whiteSpace=wrap;rounded=0;" parent="1" vertex="1">
          <mxGeometry x="350" y="480" width="60" height="30" as="geometry" />
        </mxCell>
        <mxCell id="UdBLXG176erIkyRG75ej-9" value="1" style="text;html=1;align=center;verticalAlign=middle;whiteSpace=wrap;rounded=0;" parent="1" vertex="1">
          <mxGeometry x="470" y="480" width="60" height="30" as="geometry" />
        </mxCell>
      </root>
    </mxGraphModel>
  </diagram>
</mxfile>
